<svg width="72" height="78" viewBox="0 0 72 78" fill="none" xmlns="http://www.w3.org/2000/svg">
<ellipse cx="35.5612" cy="39" rx="35.5612" ry="39" fill="#D9D9D9"/>
<path d="M16.7162 41.0091C14.3512 38.1751 12.9635 34.8609 12.7023 31.4228C12.441 27.9847 13.3162 24.5526 15.2337 21.4954C17.1511 18.4383 20.0384 15.8717 23.5851 14.0715C27.1319 12.2712 31.204 11.3055 35.3638 11.278C39.5236 11.2505 43.6138 12.1623 47.1948 13.9154C50.7758 15.6685 53.7121 18.1966 55.6883 21.228C57.6645 24.2594 58.6057 27.6795 58.4108 31.1206C58.2159 34.5617 56.8923 37.8938 54.5822 40.7588L35.5465 30.2326L16.7162 41.0091Z" fill="#D9D9FB"/>
<path d="M35.5617 24.6735L62.1969 40.7909H8.92651L35.5617 24.6735Z" fill="#6B6B7E"/>
<rect x="15.3763" y="42.1837" width="39.4057" height="25.4694" fill="#64C5FC"/>
<rect x="28.8324" y="42.1837" width="13.4556" height="19.102" fill="#260404"/>
</svg>
