<svg width="72" height="78" viewBox="0 0 72 78" fill="none" xmlns="http://www.w3.org/2000/svg">
<ellipse cx="35.5612" cy="39" rx="35.5612" ry="39" fill="#D9D9D9"/>
<path d="M16.7163 41.0091C14.3513 38.1751 12.9636 34.8609 12.7024 31.4228C12.4412 27.9847 13.3163 24.5526 15.2338 21.4954C17.1512 18.4383 20.0385 15.8717 23.5852 14.0715C27.132 12.2712 31.2041 11.3055 35.3639 11.278C39.5237 11.2505 43.6139 12.1623 47.1949 13.9154C50.7759 15.6685 53.7123 18.1966 55.6884 21.228C57.6646 24.2594 58.6058 27.6795 58.4109 31.1206C58.216 34.5617 56.8924 37.8938 54.5823 40.7588L35.5466 30.2326L16.7163 41.0091Z" fill="#D9D9FB"/>
<path d="M35.5618 24.6735L62.197 40.7909H8.92663L35.5618 24.6735Z" fill="#6B6B7E"/>
<rect x="15.3765" y="42.1837" width="39.4057" height="25.4694" fill="#64C5FC"/>
<rect x="28.8325" y="42.1837" width="13.4556" height="19.102" fill="#260404"/>
</svg>
